<mxfile host="app.diagrams.net" modified="2023-03-15T10:07:11.812Z" agent="5.0 (Windows NT 10.0; Win64; x64) AppleWebKit/537.36 (KHTML, like Gecko) Chrome/110.0.0.0 Safari/537.36" etag="dCtiqBMG-AbZV-1fjIhf" version="21.0.6" type="github">
  <diagram id="C5RBs43oDa-KdzZeNtuy" name="Page-1">
    <mxGraphModel dx="1235" dy="684" grid="1" gridSize="10" guides="1" tooltips="1" connect="1" arrows="1" fold="1" page="1" pageScale="1" pageWidth="827" pageHeight="1169" math="0" shadow="0">
      <root>
        <mxCell id="WIyWlLk6GJQsqaUBKTNV-0" />
        <mxCell id="WIyWlLk6GJQsqaUBKTNV-1" parent="WIyWlLk6GJQsqaUBKTNV-0" />
        <mxCell id="xqGJMWLe3z5DuOG_IeSh-9" value="OnError" style="swimlane;fontStyle=0;align=center;verticalAlign=top;childLayout=stackLayout;horizontal=1;startSize=26;horizontalStack=0;resizeParent=1;resizeLast=0;collapsible=1;marginBottom=0;rounded=0;shadow=0;strokeWidth=1;" parent="WIyWlLk6GJQsqaUBKTNV-1" vertex="1">
          <mxGeometry x="290" y="650" width="200" height="168" as="geometry">
            <mxRectangle x="290" y="562" width="160" height="26" as="alternateBounds" />
          </mxGeometry>
        </mxCell>
        <mxCell id="xqGJMWLe3z5DuOG_IeSh-10" value="+ info: object" style="text;align=left;verticalAlign=top;spacingLeft=4;spacingRight=4;overflow=hidden;rotatable=0;points=[[0,0.5],[1,0.5]];portConstraint=eastwest;" parent="xqGJMWLe3z5DuOG_IeSh-9" vertex="1">
          <mxGeometry y="26" width="200" height="26" as="geometry" />
        </mxCell>
        <mxCell id="xqGJMWLe3z5DuOG_IeSh-15" value="" style="line;html=1;strokeWidth=1;align=left;verticalAlign=middle;spacingTop=-1;spacingLeft=3;spacingRight=3;rotatable=0;labelPosition=right;points=[];portConstraint=eastwest;" parent="xqGJMWLe3z5DuOG_IeSh-9" vertex="1">
          <mxGeometry y="52" width="200" height="8" as="geometry" />
        </mxCell>
        <mxCell id="xqGJMWLe3z5DuOG_IeSh-1" value="+ listenJsExecError()" style="text;align=left;verticalAlign=top;spacingLeft=4;spacingRight=4;overflow=hidden;rotatable=0;points=[[0,0.5],[1,0.5]];portConstraint=eastwest;" parent="xqGJMWLe3z5DuOG_IeSh-9" vertex="1">
          <mxGeometry y="60" width="200" height="26" as="geometry" />
        </mxCell>
        <mxCell id="xqGJMWLe3z5DuOG_IeSh-3" value="+ listenStaticResourceLoadError()" style="text;align=left;verticalAlign=top;spacingLeft=4;spacingRight=4;overflow=hidden;rotatable=0;points=[[0,0.5],[1,0.5]];portConstraint=eastwest;rounded=0;shadow=0;html=0;" parent="xqGJMWLe3z5DuOG_IeSh-9" vertex="1">
          <mxGeometry y="86" width="200" height="26" as="geometry" />
        </mxCell>
        <mxCell id="xqGJMWLe3z5DuOG_IeSh-2" value="+ listenPromiseError()" style="text;align=left;verticalAlign=top;spacingLeft=4;spacingRight=4;overflow=hidden;rotatable=0;points=[[0,0.5],[1,0.5]];portConstraint=eastwest;rounded=0;shadow=0;html=0;" parent="xqGJMWLe3z5DuOG_IeSh-9" vertex="1">
          <mxGeometry y="112" width="200" height="26" as="geometry" />
        </mxCell>
        <mxCell id="xqGJMWLe3z5DuOG_IeSh-6" value="+ listenAjaxError()" style="text;align=left;verticalAlign=top;spacingLeft=4;spacingRight=4;overflow=hidden;rotatable=0;points=[[0,0.5],[1,0.5]];portConstraint=eastwest;rounded=0;shadow=0;html=0;" parent="xqGJMWLe3z5DuOG_IeSh-9" vertex="1">
          <mxGeometry y="138" width="200" height="26" as="geometry" />
        </mxCell>
        <mxCell id="xqGJMWLe3z5DuOG_IeSh-18" value="PagePerformance" style="swimlane;fontStyle=0;align=center;verticalAlign=top;childLayout=stackLayout;horizontal=1;startSize=26;horizontalStack=0;resizeParent=1;resizeLast=0;collapsible=1;marginBottom=0;rounded=0;shadow=0;strokeWidth=1;" parent="WIyWlLk6GJQsqaUBKTNV-1" vertex="1">
          <mxGeometry x="50" y="502" width="160" height="164" as="geometry">
            <mxRectangle x="60" y="790" width="160" height="26" as="alternateBounds" />
          </mxGeometry>
        </mxCell>
        <mxCell id="xqGJMWLe3z5DuOG_IeSh-19" value="+ info: object" style="text;align=left;verticalAlign=top;spacingLeft=4;spacingRight=4;overflow=hidden;rotatable=0;points=[[0,0.5],[1,0.5]];portConstraint=eastwest;" parent="xqGJMWLe3z5DuOG_IeSh-18" vertex="1">
          <mxGeometry y="26" width="160" height="26" as="geometry" />
        </mxCell>
        <mxCell id="xqGJMWLe3z5DuOG_IeSh-20" value="" style="line;html=1;strokeWidth=1;align=left;verticalAlign=middle;spacingTop=-1;spacingLeft=3;spacingRight=3;rotatable=0;labelPosition=right;points=[];portConstraint=eastwest;" parent="xqGJMWLe3z5DuOG_IeSh-18" vertex="1">
          <mxGeometry y="52" width="160" height="8" as="geometry" />
        </mxCell>
        <mxCell id="xqGJMWLe3z5DuOG_IeSh-26" value="+ getPageSpeed()" style="text;align=left;verticalAlign=top;spacingLeft=4;spacingRight=4;overflow=hidden;rotatable=0;points=[[0,0.5],[1,0.5]];portConstraint=eastwest;rounded=0;shadow=0;html=0;" parent="xqGJMWLe3z5DuOG_IeSh-18" vertex="1">
          <mxGeometry y="60" width="160" height="26" as="geometry" />
        </mxCell>
        <mxCell id="xqGJMWLe3z5DuOG_IeSh-21" value="+ getAssetSpeed()" style="text;align=left;verticalAlign=top;spacingLeft=4;spacingRight=4;overflow=hidden;rotatable=0;points=[[0,0.5],[1,0.5]];portConstraint=eastwest;" parent="xqGJMWLe3z5DuOG_IeSh-18" vertex="1">
          <mxGeometry y="86" width="160" height="26" as="geometry" />
        </mxCell>
        <mxCell id="xqGJMWLe3z5DuOG_IeSh-22" value="+ getCgiSpeed()" style="text;align=left;verticalAlign=top;spacingLeft=4;spacingRight=4;overflow=hidden;rotatable=0;points=[[0,0.5],[1,0.5]];portConstraint=eastwest;rounded=0;shadow=0;html=0;" parent="xqGJMWLe3z5DuOG_IeSh-18" vertex="1">
          <mxGeometry y="112" width="160" height="26" as="geometry" />
        </mxCell>
        <mxCell id="xqGJMWLe3z5DuOG_IeSh-23" value="+ getWebVitalsInfo()" style="text;align=left;verticalAlign=top;spacingLeft=4;spacingRight=4;overflow=hidden;rotatable=0;points=[[0,0.5],[1,0.5]];portConstraint=eastwest;rounded=0;shadow=0;html=0;" parent="xqGJMWLe3z5DuOG_IeSh-18" vertex="1">
          <mxGeometry y="138" width="160" height="26" as="geometry" />
        </mxCell>
        <mxCell id="xqGJMWLe3z5DuOG_IeSh-29" value="OfflineLog" style="swimlane;fontStyle=0;align=center;verticalAlign=top;childLayout=stackLayout;horizontal=1;startSize=26;horizontalStack=0;resizeParent=1;resizeLast=0;collapsible=1;marginBottom=0;rounded=0;shadow=0;strokeWidth=1;" parent="WIyWlLk6GJQsqaUBKTNV-1" vertex="1">
          <mxGeometry x="560" y="450" width="200" height="330" as="geometry">
            <mxRectangle x="570" y="720" width="160" height="26" as="alternateBounds" />
          </mxGeometry>
        </mxCell>
        <mxCell id="xqGJMWLe3z5DuOG_IeSh-43" value="+ config: object" style="text;align=left;verticalAlign=top;spacingLeft=4;spacingRight=4;overflow=hidden;rotatable=0;points=[[0,0.5],[1,0.5]];portConstraint=eastwest;" parent="xqGJMWLe3z5DuOG_IeSh-29" vertex="1">
          <mxGeometry y="26" width="200" height="26" as="geometry" />
        </mxCell>
        <mxCell id="xqGJMWLe3z5DuOG_IeSh-45" value="+ uploadUrl: string" style="text;align=left;verticalAlign=top;spacingLeft=4;spacingRight=4;overflow=hidden;rotatable=0;points=[[0,0.5],[1,0.5]];portConstraint=eastwest;" parent="xqGJMWLe3z5DuOG_IeSh-29" vertex="1">
          <mxGeometry y="52" width="200" height="26" as="geometry" />
        </mxCell>
        <mxCell id="xqGJMWLe3z5DuOG_IeSh-30" value="+ uin: string" style="text;align=left;verticalAlign=top;spacingLeft=4;spacingRight=4;overflow=hidden;rotatable=0;points=[[0,0.5],[1,0.5]];portConstraint=eastwest;" parent="xqGJMWLe3z5DuOG_IeSh-29" vertex="1">
          <mxGeometry y="78" width="200" height="26" as="geometry" />
        </mxCell>
        <mxCell id="xqGJMWLe3z5DuOG_IeSh-31" value="" style="line;html=1;strokeWidth=1;align=left;verticalAlign=middle;spacingTop=-1;spacingLeft=3;spacingRight=3;rotatable=0;labelPosition=right;points=[];portConstraint=eastwest;" parent="xqGJMWLe3z5DuOG_IeSh-29" vertex="1">
          <mxGeometry y="104" width="200" height="8" as="geometry" />
        </mxCell>
        <mxCell id="xqGJMWLe3z5DuOG_IeSh-32" value="+ add()" style="text;align=left;verticalAlign=top;spacingLeft=4;spacingRight=4;overflow=hidden;rotatable=0;points=[[0,0.5],[1,0.5]];portConstraint=eastwest;" parent="xqGJMWLe3z5DuOG_IeSh-29" vertex="1">
          <mxGeometry y="112" width="200" height="26" as="geometry" />
        </mxCell>
        <mxCell id="xqGJMWLe3z5DuOG_IeSh-33" value="+ autoClearDb()" style="text;align=left;verticalAlign=top;spacingLeft=4;spacingRight=4;overflow=hidden;rotatable=0;points=[[0,0.5],[1,0.5]];portConstraint=eastwest;rounded=0;shadow=0;html=0;" parent="xqGJMWLe3z5DuOG_IeSh-29" vertex="1">
          <mxGeometry y="138" width="200" height="26" as="geometry" />
        </mxCell>
        <mxCell id="xqGJMWLe3z5DuOG_IeSh-34" value="+ autoSend()" style="text;align=left;verticalAlign=top;spacingLeft=4;spacingRight=4;overflow=hidden;rotatable=0;points=[[0,0.5],[1,0.5]];portConstraint=eastwest;rounded=0;shadow=0;html=0;" parent="xqGJMWLe3z5DuOG_IeSh-29" vertex="1">
          <mxGeometry y="164" width="200" height="26" as="geometry" />
        </mxCell>
        <mxCell id="xqGJMWLe3z5DuOG_IeSh-35" value="+ disableOperation()" style="text;align=left;verticalAlign=top;spacingLeft=4;spacingRight=4;overflow=hidden;rotatable=0;points=[[0,0.5],[1,0.5]];portConstraint=eastwest;rounded=0;shadow=0;html=0;" parent="xqGJMWLe3z5DuOG_IeSh-29" vertex="1">
          <mxGeometry y="190" width="200" height="26" as="geometry" />
        </mxCell>
        <mxCell id="xqGJMWLe3z5DuOG_IeSh-36" value="+ sendLogs()" style="text;align=left;verticalAlign=top;spacingLeft=4;spacingRight=4;overflow=hidden;rotatable=0;points=[[0,0.5],[1,0.5]];portConstraint=eastwest;rounded=0;shadow=0;html=0;" parent="xqGJMWLe3z5DuOG_IeSh-29" vertex="1">
          <mxGeometry y="216" width="200" height="26" as="geometry" />
        </mxCell>
        <mxCell id="xqGJMWLe3z5DuOG_IeSh-37" value="+ startInsertToDB()" style="text;align=left;verticalAlign=top;spacingLeft=4;spacingRight=4;overflow=hidden;rotatable=0;points=[[0,0.5],[1,0.5]];portConstraint=eastwest;rounded=0;shadow=0;html=0;" parent="xqGJMWLe3z5DuOG_IeSh-29" vertex="1">
          <mxGeometry y="242" width="200" height="26" as="geometry" />
        </mxCell>
        <mxCell id="xqGJMWLe3z5DuOG_IeSh-38" value="+ stopInsertToDB()" style="text;align=left;verticalAlign=top;spacingLeft=4;spacingRight=4;overflow=hidden;rotatable=0;points=[[0,0.5],[1,0.5]];portConstraint=eastwest;rounded=0;shadow=0;html=0;" parent="xqGJMWLe3z5DuOG_IeSh-29" vertex="1">
          <mxGeometry y="268" width="200" height="26" as="geometry" />
        </mxCell>
        <mxCell id="xqGJMWLe3z5DuOG_IeSh-39" value="+ upLoadLogs()" style="text;align=left;verticalAlign=top;spacingLeft=4;spacingRight=4;overflow=hidden;rotatable=0;points=[[0,0.5],[1,0.5]];portConstraint=eastwest;rounded=0;shadow=0;html=0;" parent="xqGJMWLe3z5DuOG_IeSh-29" vertex="1">
          <mxGeometry y="294" width="200" height="26" as="geometry" />
        </mxCell>
        <mxCell id="xqGJMWLe3z5DuOG_IeSh-52" value="plugin" style="swimlane;fontStyle=2;align=center;verticalAlign=top;childLayout=stackLayout;horizontal=1;startSize=26;horizontalStack=0;resizeParent=1;resizeLast=0;collapsible=1;marginBottom=0;rounded=0;shadow=0;strokeWidth=1;" parent="WIyWlLk6GJQsqaUBKTNV-1" vertex="1">
          <mxGeometry x="300" y="430" width="180" height="180" as="geometry">
            <mxRectangle x="230" y="140" width="160" height="26" as="alternateBounds" />
          </mxGeometry>
        </mxCell>
        <mxCell id="xqGJMWLe3z5DuOG_IeSh-53" value="+ asyncPlugin: boolean" style="text;align=left;verticalAlign=top;spacingLeft=4;spacingRight=4;overflow=hidden;rotatable=0;points=[[0,0.5],[1,0.5]];portConstraint=eastwest;" parent="xqGJMWLe3z5DuOG_IeSh-52" vertex="1">
          <mxGeometry y="26" width="180" height="26" as="geometry" />
        </mxCell>
        <mxCell id="xqGJMWLe3z5DuOG_IeSh-54" value="+ offlineLog: boolean" style="text;align=left;verticalAlign=top;spacingLeft=4;spacingRight=4;overflow=hidden;rotatable=0;points=[[0,0.5],[1,0.5]];portConstraint=eastwest;rounded=0;shadow=0;html=0;" parent="xqGJMWLe3z5DuOG_IeSh-52" vertex="1">
          <mxGeometry y="52" width="180" height="26" as="geometry" />
        </mxCell>
        <mxCell id="xqGJMWLe3z5DuOG_IeSh-56" value="" style="line;html=1;strokeWidth=1;align=left;verticalAlign=middle;spacingTop=-1;spacingLeft=3;spacingRight=3;rotatable=0;labelPosition=right;points=[];portConstraint=eastwest;" parent="xqGJMWLe3z5DuOG_IeSh-52" vertex="1">
          <mxGeometry y="78" width="180" height="8" as="geometry" />
        </mxCell>
        <mxCell id="xqGJMWLe3z5DuOG_IeSh-63" value="+ init()" style="text;align=left;verticalAlign=top;spacingLeft=4;spacingRight=4;overflow=hidden;rotatable=0;points=[[0,0.5],[1,0.5]];portConstraint=eastwest;" parent="xqGJMWLe3z5DuOG_IeSh-52" vertex="1">
          <mxGeometry y="86" width="180" height="24" as="geometry" />
        </mxCell>
        <mxCell id="xqGJMWLe3z5DuOG_IeSh-57" value="+ AsyncPluginOption()" style="text;align=left;verticalAlign=top;spacingLeft=4;spacingRight=4;overflow=hidden;rotatable=0;points=[[0,0.5],[1,0.5]];portConstraint=eastwest;" parent="xqGJMWLe3z5DuOG_IeSh-52" vertex="1">
          <mxGeometry y="110" width="180" height="24" as="geometry" />
        </mxCell>
        <mxCell id="xqGJMWLe3z5DuOG_IeSh-62" value="+ startToUseOfflineLog()" style="text;align=left;verticalAlign=top;spacingLeft=4;spacingRight=4;overflow=hidden;rotatable=0;points=[[0,0.5],[1,0.5]];portConstraint=eastwest;" parent="xqGJMWLe3z5DuOG_IeSh-52" vertex="1">
          <mxGeometry y="134" width="180" height="20" as="geometry" />
        </mxCell>
        <mxCell id="xqGJMWLe3z5DuOG_IeSh-59" value="" style="endArrow=open;endSize=12;dashed=1;html=1;rounded=0;" parent="WIyWlLk6GJQsqaUBKTNV-1" source="xqGJMWLe3z5DuOG_IeSh-52" target="xqGJMWLe3z5DuOG_IeSh-18" edge="1">
          <mxGeometry x="0.1111" y="5" width="160" relative="1" as="geometry">
            <mxPoint x="120" y="328" as="sourcePoint" />
            <mxPoint x="420" y="318" as="targetPoint" />
            <mxPoint as="offset" />
          </mxGeometry>
        </mxCell>
        <mxCell id="xqGJMWLe3z5DuOG_IeSh-60" value="" style="endArrow=open;endSize=12;dashed=1;html=1;rounded=0;" parent="WIyWlLk6GJQsqaUBKTNV-1" source="xqGJMWLe3z5DuOG_IeSh-52" target="xqGJMWLe3z5DuOG_IeSh-9" edge="1">
          <mxGeometry width="160" relative="1" as="geometry">
            <mxPoint x="120" y="328" as="sourcePoint" />
            <mxPoint x="420" y="318" as="targetPoint" />
          </mxGeometry>
        </mxCell>
        <mxCell id="xqGJMWLe3z5DuOG_IeSh-61" value="" style="endArrow=open;endSize=12;dashed=1;html=1;rounded=0;exitX=1;exitY=0.5;exitDx=0;exitDy=0;" parent="WIyWlLk6GJQsqaUBKTNV-1" source="xqGJMWLe3z5DuOG_IeSh-54" target="xqGJMWLe3z5DuOG_IeSh-29" edge="1">
          <mxGeometry width="160" relative="1" as="geometry">
            <mxPoint x="120" y="328" as="sourcePoint" />
            <mxPoint x="420" y="318" as="targetPoint" />
          </mxGeometry>
        </mxCell>
        <mxCell id="kuMRklINZqyZX6G4IUf3-0" value="frontMonitor" style="swimlane;fontStyle=2;align=center;verticalAlign=top;childLayout=stackLayout;horizontal=1;startSize=26;horizontalStack=0;resizeParent=1;resizeLast=0;collapsible=1;marginBottom=0;rounded=0;shadow=0;strokeWidth=1;" vertex="1" parent="WIyWlLk6GJQsqaUBKTNV-1">
          <mxGeometry x="310" y="130" width="180" height="240" as="geometry">
            <mxRectangle x="230" y="140" width="160" height="26" as="alternateBounds" />
          </mxGeometry>
        </mxCell>
        <mxCell id="kuMRklINZqyZX6G4IUf3-1" value="+ info: object" style="text;align=left;verticalAlign=top;spacingLeft=4;spacingRight=4;overflow=hidden;rotatable=0;points=[[0,0.5],[1,0.5]];portConstraint=eastwest;" vertex="1" parent="kuMRklINZqyZX6G4IUf3-0">
          <mxGeometry y="26" width="180" height="26" as="geometry" />
        </mxCell>
        <mxCell id="kuMRklINZqyZX6G4IUf3-12" value="+ instance: object" style="text;align=left;verticalAlign=top;spacingLeft=4;spacingRight=4;overflow=hidden;rotatable=0;points=[[0,0.5],[1,0.5]];portConstraint=eastwest;rounded=0;shadow=0;html=0;" vertex="1" parent="kuMRklINZqyZX6G4IUf3-0">
          <mxGeometry y="52" width="180" height="26" as="geometry" />
        </mxCell>
        <mxCell id="kuMRklINZqyZX6G4IUf3-2" value="+ config: object" style="text;align=left;verticalAlign=top;spacingLeft=4;spacingRight=4;overflow=hidden;rotatable=0;points=[[0,0.5],[1,0.5]];portConstraint=eastwest;rounded=0;shadow=0;html=0;" vertex="1" parent="kuMRklINZqyZX6G4IUf3-0">
          <mxGeometry y="78" width="180" height="26" as="geometry" />
        </mxCell>
        <mxCell id="kuMRklINZqyZX6G4IUf3-3" value="" style="line;html=1;strokeWidth=1;align=left;verticalAlign=middle;spacingTop=-1;spacingLeft=3;spacingRight=3;rotatable=0;labelPosition=right;points=[];portConstraint=eastwest;" vertex="1" parent="kuMRklINZqyZX6G4IUf3-0">
          <mxGeometry y="104" width="180" height="8" as="geometry" />
        </mxCell>
        <mxCell id="kuMRklINZqyZX6G4IUf3-6" value="+ setConfig()" style="text;align=left;verticalAlign=top;spacingLeft=4;spacingRight=4;overflow=hidden;rotatable=0;points=[[0,0.5],[1,0.5]];portConstraint=eastwest;" vertex="1" parent="kuMRklINZqyZX6G4IUf3-0">
          <mxGeometry y="112" width="180" height="20" as="geometry" />
        </mxCell>
        <mxCell id="kuMRklINZqyZX6G4IUf3-8" value="+ formatNormalLogPipe()" style="text;align=left;verticalAlign=top;spacingLeft=4;spacingRight=4;overflow=hidden;rotatable=0;points=[[0,0.5],[1,0.5]];portConstraint=eastwest;" vertex="1" parent="kuMRklINZqyZX6G4IUf3-0">
          <mxGeometry y="132" width="180" height="20" as="geometry" />
        </mxCell>
        <mxCell id="kuMRklINZqyZX6G4IUf3-4" value="+ normalLogPipeline()" style="text;align=left;verticalAlign=top;spacingLeft=4;spacingRight=4;overflow=hidden;rotatable=0;points=[[0,0.5],[1,0.5]];portConstraint=eastwest;" vertex="1" parent="kuMRklINZqyZX6G4IUf3-0">
          <mxGeometry y="152" width="180" height="24" as="geometry" />
        </mxCell>
        <mxCell id="kuMRklINZqyZX6G4IUf3-5" value="+ reportPipe()" style="text;align=left;verticalAlign=top;spacingLeft=4;spacingRight=4;overflow=hidden;rotatable=0;points=[[0,0.5],[1,0.5]];portConstraint=eastwest;" vertex="1" parent="kuMRklINZqyZX6G4IUf3-0">
          <mxGeometry y="176" width="180" height="24" as="geometry" />
        </mxCell>
        <mxCell id="kuMRklINZqyZX6G4IUf3-14" value="+ beforeRequestHooks()" style="text;align=left;verticalAlign=top;spacingLeft=4;spacingRight=4;overflow=hidden;rotatable=0;points=[[0,0.5],[1,0.5]];portConstraint=eastwest;" vertex="1" parent="kuMRklINZqyZX6G4IUf3-0">
          <mxGeometry y="200" width="180" height="20" as="geometry" />
        </mxCell>
        <mxCell id="kuMRklINZqyZX6G4IUf3-13" value="+ afterRequestHooks()" style="text;align=left;verticalAlign=top;spacingLeft=4;spacingRight=4;overflow=hidden;rotatable=0;points=[[0,0.5],[1,0.5]];portConstraint=eastwest;" vertex="1" parent="kuMRklINZqyZX6G4IUf3-0">
          <mxGeometry y="220" width="180" height="20" as="geometry" />
        </mxCell>
        <mxCell id="kuMRklINZqyZX6G4IUf3-18" value="" style="endArrow=open;endSize=12;dashed=1;html=1;rounded=0;exitX=0.444;exitY=1;exitDx=0;exitDy=0;exitPerimeter=0;entryX=0.5;entryY=0;entryDx=0;entryDy=0;" edge="1" parent="WIyWlLk6GJQsqaUBKTNV-1" source="kuMRklINZqyZX6G4IUf3-13" target="xqGJMWLe3z5DuOG_IeSh-52">
          <mxGeometry width="160" relative="1" as="geometry">
            <mxPoint x="120" y="328" as="sourcePoint" />
            <mxPoint x="420" y="318" as="targetPoint" />
          </mxGeometry>
        </mxCell>
      </root>
    </mxGraphModel>
  </diagram>
</mxfile>
